<mxfile host="app.diagrams.net" modified="2024-03-14T07:52:15.137Z" agent="Mozilla/5.0 (Windows NT 10.0; Win64; x64) AppleWebKit/537.36 (KHTML, like Gecko) Chrome/122.0.0.0 Safari/537.36 Edg/122.0.0.0" etag="hnAL7XM_y62CxZAowvvp" version="24.0.2" type="device">
  <diagram id="C5RBs43oDa-KdzZeNtuy" name="Page-1">
    <mxGraphModel dx="666" dy="798" grid="1" gridSize="10" guides="1" tooltips="1" connect="1" arrows="1" fold="1" page="1" pageScale="1" pageWidth="827" pageHeight="1169" math="0" shadow="0">
      <root>
        <mxCell id="WIyWlLk6GJQsqaUBKTNV-0" />
        <mxCell id="WIyWlLk6GJQsqaUBKTNV-1" parent="WIyWlLk6GJQsqaUBKTNV-0" />
        <mxCell id="SSg9dJKsIH0vG82T_fei-20" value="" style="group" vertex="1" connectable="0" parent="WIyWlLk6GJQsqaUBKTNV-1">
          <mxGeometry x="70" y="30" width="360" height="760" as="geometry" />
        </mxCell>
        <mxCell id="SSg9dJKsIH0vG82T_fei-2" style="edgeStyle=orthogonalEdgeStyle;rounded=0;orthogonalLoop=1;jettySize=auto;html=1;entryX=0.5;entryY=0;entryDx=0;entryDy=0;" edge="1" parent="SSg9dJKsIH0vG82T_fei-20" source="SSg9dJKsIH0vG82T_fei-0" target="SSg9dJKsIH0vG82T_fei-1">
          <mxGeometry relative="1" as="geometry" />
        </mxCell>
        <mxCell id="SSg9dJKsIH0vG82T_fei-0" value="Start" style="ellipse;whiteSpace=wrap;html=1;" vertex="1" parent="SSg9dJKsIH0vG82T_fei-20">
          <mxGeometry x="110" y="20" width="120" height="80" as="geometry" />
        </mxCell>
        <mxCell id="SSg9dJKsIH0vG82T_fei-4" style="edgeStyle=orthogonalEdgeStyle;rounded=0;orthogonalLoop=1;jettySize=auto;html=1;entryX=0.5;entryY=0;entryDx=0;entryDy=0;" edge="1" parent="SSg9dJKsIH0vG82T_fei-20" source="SSg9dJKsIH0vG82T_fei-1" target="SSg9dJKsIH0vG82T_fei-3">
          <mxGeometry relative="1" as="geometry" />
        </mxCell>
        <mxCell id="SSg9dJKsIH0vG82T_fei-1" value="input bilangan, pangkat, hasil" style="shape=parallelogram;perimeter=parallelogramPerimeter;whiteSpace=wrap;html=1;fixedSize=1;" vertex="1" parent="SSg9dJKsIH0vG82T_fei-20">
          <mxGeometry x="110" y="140" width="120" height="60" as="geometry" />
        </mxCell>
        <mxCell id="SSg9dJKsIH0vG82T_fei-6" style="edgeStyle=orthogonalEdgeStyle;rounded=0;orthogonalLoop=1;jettySize=auto;html=1;entryX=0.5;entryY=0;entryDx=0;entryDy=0;" edge="1" parent="SSg9dJKsIH0vG82T_fei-20" source="SSg9dJKsIH0vG82T_fei-3" target="SSg9dJKsIH0vG82T_fei-5">
          <mxGeometry relative="1" as="geometry" />
        </mxCell>
        <mxCell id="SSg9dJKsIH0vG82T_fei-3" value="i = 0" style="rounded=0;whiteSpace=wrap;html=1;" vertex="1" parent="SSg9dJKsIH0vG82T_fei-20">
          <mxGeometry x="110" y="240" width="120" height="30" as="geometry" />
        </mxCell>
        <mxCell id="SSg9dJKsIH0vG82T_fei-8" style="edgeStyle=orthogonalEdgeStyle;rounded=0;orthogonalLoop=1;jettySize=auto;html=1;entryX=0.5;entryY=0;entryDx=0;entryDy=0;" edge="1" parent="SSg9dJKsIH0vG82T_fei-20" source="SSg9dJKsIH0vG82T_fei-5" target="SSg9dJKsIH0vG82T_fei-7">
          <mxGeometry relative="1" as="geometry" />
        </mxCell>
        <mxCell id="SSg9dJKsIH0vG82T_fei-5" value="" style="ellipse;whiteSpace=wrap;html=1;aspect=fixed;" vertex="1" parent="SSg9dJKsIH0vG82T_fei-20">
          <mxGeometry x="155" y="290" width="30" height="30" as="geometry" />
        </mxCell>
        <mxCell id="SSg9dJKsIH0vG82T_fei-10" style="edgeStyle=orthogonalEdgeStyle;rounded=0;orthogonalLoop=1;jettySize=auto;html=1;entryX=0.5;entryY=0;entryDx=0;entryDy=0;" edge="1" parent="SSg9dJKsIH0vG82T_fei-20" source="SSg9dJKsIH0vG82T_fei-7" target="SSg9dJKsIH0vG82T_fei-9">
          <mxGeometry relative="1" as="geometry" />
        </mxCell>
        <mxCell id="SSg9dJKsIH0vG82T_fei-11" value="Ya" style="edgeLabel;html=1;align=center;verticalAlign=middle;resizable=0;points=[];" vertex="1" connectable="0" parent="SSg9dJKsIH0vG82T_fei-10">
          <mxGeometry x="-0.32" y="1" relative="1" as="geometry">
            <mxPoint as="offset" />
          </mxGeometry>
        </mxCell>
        <mxCell id="SSg9dJKsIH0vG82T_fei-17" style="edgeStyle=orthogonalEdgeStyle;rounded=0;orthogonalLoop=1;jettySize=auto;html=1;entryX=0;entryY=0.5;entryDx=0;entryDy=0;" edge="1" parent="SSg9dJKsIH0vG82T_fei-20" source="SSg9dJKsIH0vG82T_fei-7" target="SSg9dJKsIH0vG82T_fei-16">
          <mxGeometry relative="1" as="geometry">
            <Array as="points">
              <mxPoint x="80" y="390" />
              <mxPoint x="80" y="690" />
            </Array>
          </mxGeometry>
        </mxCell>
        <mxCell id="SSg9dJKsIH0vG82T_fei-18" value="Tidak" style="edgeLabel;html=1;align=center;verticalAlign=middle;resizable=0;points=[];" vertex="1" connectable="0" parent="SSg9dJKsIH0vG82T_fei-17">
          <mxGeometry x="-0.8359" y="-3" relative="1" as="geometry">
            <mxPoint as="offset" />
          </mxGeometry>
        </mxCell>
        <mxCell id="SSg9dJKsIH0vG82T_fei-7" value="i &amp;lt;= pangkat" style="rhombus;whiteSpace=wrap;html=1;" vertex="1" parent="SSg9dJKsIH0vG82T_fei-20">
          <mxGeometry x="130" y="350" width="80" height="80" as="geometry" />
        </mxCell>
        <mxCell id="SSg9dJKsIH0vG82T_fei-14" value="" style="edgeStyle=orthogonalEdgeStyle;rounded=0;orthogonalLoop=1;jettySize=auto;html=1;" edge="1" parent="SSg9dJKsIH0vG82T_fei-20" source="SSg9dJKsIH0vG82T_fei-9" target="SSg9dJKsIH0vG82T_fei-13">
          <mxGeometry relative="1" as="geometry" />
        </mxCell>
        <mxCell id="SSg9dJKsIH0vG82T_fei-9" value="hasil *= bilangan" style="rounded=0;whiteSpace=wrap;html=1;" vertex="1" parent="SSg9dJKsIH0vG82T_fei-20">
          <mxGeometry x="110" y="480" width="120" height="60" as="geometry" />
        </mxCell>
        <mxCell id="SSg9dJKsIH0vG82T_fei-15" style="edgeStyle=orthogonalEdgeStyle;rounded=0;orthogonalLoop=1;jettySize=auto;html=1;entryX=1;entryY=0.5;entryDx=0;entryDy=0;" edge="1" parent="SSg9dJKsIH0vG82T_fei-20" source="SSg9dJKsIH0vG82T_fei-13" target="SSg9dJKsIH0vG82T_fei-5">
          <mxGeometry relative="1" as="geometry">
            <Array as="points">
              <mxPoint x="280" y="595" />
              <mxPoint x="280" y="305" />
            </Array>
          </mxGeometry>
        </mxCell>
        <mxCell id="SSg9dJKsIH0vG82T_fei-13" value="i++" style="whiteSpace=wrap;html=1;rounded=0;" vertex="1" parent="SSg9dJKsIH0vG82T_fei-20">
          <mxGeometry x="110" y="580" width="120" height="30" as="geometry" />
        </mxCell>
        <mxCell id="SSg9dJKsIH0vG82T_fei-16" value="print hasil pangkat" style="shape=parallelogram;perimeter=parallelogramPerimeter;whiteSpace=wrap;html=1;fixedSize=1;" vertex="1" parent="SSg9dJKsIH0vG82T_fei-20">
          <mxGeometry x="110" y="660" width="120" height="60" as="geometry" />
        </mxCell>
        <mxCell id="SSg9dJKsIH0vG82T_fei-19" value="" style="rounded=0;whiteSpace=wrap;html=1;fillColor=none;" vertex="1" parent="SSg9dJKsIH0vG82T_fei-20">
          <mxGeometry width="360" height="760" as="geometry" />
        </mxCell>
      </root>
    </mxGraphModel>
  </diagram>
</mxfile>
